<svg xmlns="http://www.w3.org/2000/svg" viewBox="0 0 128 128">
  <path d="M39 1C37.34 1 36 2.34 36 4L36 17.210938C24.6 17.700937 17.6 19.230078 13 23.830078C5.96 30.860078 5.97 43.829453 6 69.689453L6 74.480469L6 78.820312C5.98 102.01031 5.9698438 113.64953 12.589844 120.26953C19.399844 127.07953 32.04 127.04977 57.25 127.00977C61.56 126.99977 66.449766 126.99977 70.759766 127.00977C72.689766 127.00977 74.540078 127.01953 76.330078 127.01953C97.860078 127.01953 109.12992 126.55953 115.41992 120.26953C122.03992 113.64953 122.03 102.01055 122 78.810547L122 74.470703L122 69.679688C122.02 43.819688 122.03023 30.850312 114.99023 23.820312C110.39023 19.230313 103.39023 17.699219 91.990234 17.199219L91.990234 4C91.990234 2.34 90.650234 1 88.990234 1C87.330234 1 85.990234 2.34 85.990234 4L85.990234 17.039062C81.600234 16.969062 76.679141 16.980234 71.119141 16.990234C68.859141 17.000234 66.49 17 64 17C61.51 17 59.139141 17.000234 56.869141 16.990234C51.309141 16.980234 46.38 16.969063 42 17.039062L42 4C42 2.34 40.66 1 39 1 z M 48.990234 22.982422C51.461523 22.977695 54.081875 22.983984 56.859375 22.990234C59.129375 23.000234 61.51 23 64 23C66.49 23 68.870625 23.000234 71.140625 22.990234C93.360625 22.940234 105.59977 22.920313 110.75977 28.070312C112.70977 30.020312 113.94094 32.91 114.71094 37L13.289062 37C14.059062 32.91 15.290234 30.020312 17.240234 28.070312C21.755234 23.564063 31.691211 23.015508 48.990234 22.982422 z M 12.519531 43L115.4707 43C116.0107 49.59 116.01 58.299687 116 69.679688L116 74.470703L116 78.820312C116.02 99.670312 116.02992 111.15953 111.16992 116.01953C106.11992 121.06953 94.299766 121.04977 70.759766 121.00977C68.609766 120.99977 66.35 121 64 121C61.65 121 59.390234 120.99977 57.240234 121.00977C33.710234 121.05977 21.880078 121.06953 16.830078 116.01953C11.970078 111.15953 11.98 99.670313 12 78.820312L12 74.480469L12 69.689453C11.99 58.299453 11.979531 49.59 12.519531 43 z M 64 58C62.34 58 61 59.34 61 61L61 81C61 81.8 61.320859 82.559141 61.880859 83.119141L71.880859 93.119141C72.460859 93.709141 73.23 94 74 94C74.77 94 75.539141 93.709141 76.119141 93.119141C77.289141 91.949141 77.289141 90.050859 76.119141 88.880859L67 79.759766L67 61C67 59.34 65.66 58 64 58 z" fill="#FFFCFC" />
</svg>